# xmcd
#
# Track frame offsets: 
#        150
#        24332
#        39797
#        56665
#        72586
#        100544
#        121863
#        140326
#        162885
#        182147
#
# Disc length: 2709 seconds
#
# Revision: 0
# Processed by: cddbd v1.5.2PL0 Copyright (c) Steve Scherf et al.
# Submitted via: ExactAudioCopy v0.99pb5
#
DISCID=7b0a930a
DTITLE=Re-Flex - Humanication
DYEAR=2010
DGENRE=Rock
TTITLE0=Humanication
TTITLE1=Cold War
TTITLE2=Tears Fall Like Rain
TTITLE3=Forever and Ever
TTITLE4=Playing for Time
TTITLE5=How Much Longer
TTITLE6=Sending Out A Message
TTITLE7=Tell Her That You Love Her
TTITLE8=Give It Up
TTITLE9=You And I
EXTD=
EXTT0=
EXTT1=
EXTT2=
EXTT3=
EXTT4=
EXTT5=
EXTT6=
EXTT7=
EXTT8=
EXTT9=
PLAYORDER=
